<svg xmlns="http://www.w3.org/2000/svg" width="30.86" height="30.86" viewBox="0 0 30.86 30.86">
  <path id="bootstrap" d="M20.135,21.533a2.741,2.741,0,0,1-3.025,2.854H11.537V18.759h5.572c2.932,0,3.025,2.2,3.025,2.773ZM16.68,16.5a2.475,2.475,0,0,0,2.648-2.5c0-1.069-.242-2.471-2.648-2.471H11.537V16.5Zm14.18-9.1V27.966a5.159,5.159,0,0,1-5.144,5.144H5.144A5.159,5.159,0,0,1,0,27.966V7.394A5.159,5.159,0,0,1,5.144,2.25H25.716A5.159,5.159,0,0,1,30.86,7.394ZM23.286,21.941c0-1.486-.458-4.015-3.379-4.639v-.05a3.946,3.946,0,0,0,2.572-3.833c0-.482.138-4.462-5.345-4.462H8.386v18c8.833,0,9.635.116,11.269-.393a4.63,4.63,0,0,0,3.631-4.623Z" transform="translate(0 -2.25)" fill="#3f3d56"/>
</svg>
