<svg xmlns="http://www.w3.org/2000/svg" width="30.86" height="30.86" viewBox="0 0 30.86 30.86">
  <path id="js" d="M0,0H30.86V30.86H0ZM28.332,23.5c-.225-1.408-1.142-2.591-3.861-3.694-.946-.444-2-.752-2.311-1.466a1.518,1.518,0,0,1-.059-.907,1.474,1.474,0,0,1,1.948-.849A2.092,2.092,0,0,1,25.3,17.742c1.33-.869,1.33-.869,2.257-1.447a5.307,5.307,0,0,0-.753-1,4.318,4.318,0,0,0-3.644-1.33l-.907.114a4.145,4.145,0,0,0-2.2,1.292,4.034,4.034,0,0,0,.732,5.749c1.755,1.312,4.322,1.6,4.65,2.835.309,1.5-1.119,1.987-2.528,1.813a3.386,3.386,0,0,1-2.257-1.718L18.3,25.4a5.2,5.2,0,0,0,1.042,1.426c2.237,2.258,7.831,2.142,8.835-1.291a4.352,4.352,0,0,0,.1-2.122l.059.086ZM16.781,14.184H13.891c0,2.492-.012,4.968-.012,7.464a12.174,12.174,0,0,1-.177,3.486c-.424.886-1.517.773-2.014.617a2.481,2.481,0,0,1-1.067-1.1,1.1,1.1,0,0,0-.163-.252L8.111,25.847a4.548,4.548,0,0,0,1.7,1.951,5.659,5.659,0,0,0,4.124.521A3.612,3.612,0,0,0,16.266,26.5c.656-1.2.517-2.662.51-4.3.015-2.641,0-5.283,0-7.945l.005-.072Z" fill="#3f3d56"/>
</svg>
