<svg xmlns="http://www.w3.org/2000/svg" width="30.86" height="34.807" viewBox="0 0 30.86 34.807">
  <path id="node" d="M15.472,35.092a2.705,2.705,0,0,1-1.34-.359L9.871,32.212c-.635-.359-.325-.483-.117-.553a8.4,8.4,0,0,0,1.927-.877A.312.312,0,0,1,12,30.81l3.274,1.941a.4.4,0,0,0,.394,0l12.757-7.363a.409.409,0,0,0,.193-.345V10.317a.412.412,0,0,0-.2-.352L15.666,2.609a.4.4,0,0,0-.394,0L2.529,9.972a.4.4,0,0,0-.2.352V25.043a.381.381,0,0,0,.2.338L6.024,27.4c1.9.946,3.06-.166,3.06-1.292V11.574a.366.366,0,0,1,.373-.366h1.616a.37.37,0,0,1,.373.366V26.113c0,2.528-1.381,3.978-3.778,3.978a5.424,5.424,0,0,1-2.935-.8L1.389,27.363a2.686,2.686,0,0,1-1.34-2.328V10.317a2.694,2.694,0,0,1,1.34-2.328L14.132.627a2.8,2.8,0,0,1,2.68,0L29.569,8a2.686,2.686,0,0,1,1.34,2.328V25.043a2.7,2.7,0,0,1-1.34,2.328L16.812,34.733a2.686,2.686,0,0,1-1.34.359Zm10.3-14.511c0-2.756-1.865-3.488-5.781-4.006-3.965-.525-4.365-.794-4.365-1.72,0-.767.338-1.789,3.274-1.789,2.618,0,3.585.566,3.985,2.335a.37.37,0,0,0,.359.29H24.9a.361.361,0,0,0,.269-.117.384.384,0,0,0,.1-.283c-.256-3.046-2.279-4.462-6.368-4.462-3.64,0-5.809,1.533-5.809,4.11,0,2.79,2.162,3.564,5.65,3.909,4.179.408,4.5,1.022,4.5,1.844,0,1.423-1.147,2.031-3.833,2.031-3.377,0-4.117-.85-4.365-2.528a.366.366,0,0,0-.366-.311H13.027a.364.364,0,0,0-.366.366c0,2.148,1.167,4.711,6.755,4.711,4.034-.007,6.354-1.6,6.354-4.379Z" transform="translate(-0.049 -0.285)" fill="#3f3d56"/>
</svg>
