<svg xmlns="http://www.w3.org/2000/svg" width="35.267" height="30.86" viewBox="0 0 35.267 30.86">
  <path id="react" d="M28.806,12.251q-.558-.186-1.116-.351c.062-.255.117-.51.172-.765.847-4.105.289-7.4-1.591-8.493-1.812-1.04-4.767.041-7.756,2.645-.3.255-.585.523-.861.792-.186-.179-.379-.358-.572-.53C13.948,2.767,10.807,1.6,8.927,2.691c-1.8,1.047-2.342,4.153-1.584,8.038.076.386.158.765.255,1.15-.441.124-.875.262-1.281.406C2.638,13.56,0,15.571,0,17.652c0,2.149,2.81,4.305,6.633,5.614.31.1.62.207.937.3-.1.413-.193.82-.276,1.24-.723,3.823-.158,6.854,1.646,7.894,1.86,1.075,4.987-.028,8.031-2.693.241-.214.482-.434.723-.668.3.3.62.579.937.854,2.948,2.535,5.862,3.561,7.659,2.521,1.86-1.075,2.466-4.333,1.681-8.3q-.093-.455-.207-.93c.22-.062.434-.131.647-.2,3.974-1.316,6.854-3.444,6.854-5.628,0-2.087-2.714-4.112-6.461-5.4ZM19.486,6.4c2.562-2.232,4.952-3.106,6.041-2.48,1.164.668,1.612,3.368.882,6.916-.048.234-.1.461-.158.689a35.262,35.262,0,0,0-4.636-.73A34.8,34.8,0,0,0,18.68,7.141c.269-.255.53-.5.806-.737ZM11.517,21.227c.351.6.709,1.2,1.088,1.784a31.19,31.19,0,0,1-3.2-.517,32.176,32.176,0,0,1,1.123-3.065c.317.606.641,1.205.985,1.8ZM9.43,12.94c.992-.22,2.046-.4,3.141-.537-.365.572-.723,1.157-1.061,1.75s-.668,1.185-.978,1.791c-.434-1.026-.8-2.032-1.1-3Zm1.887,4.746c.455-.951.951-1.88,1.474-2.8s1.088-1.8,1.681-2.679c1.033-.076,2.087-.117,3.162-.117s2.135.041,3.162.117q.878,1.3,1.674,2.666t1.495,2.783q-.692,1.426-1.488,2.81c-.523.916-1.081,1.8-1.667,2.686-1.026.076-2.094.11-3.175.11s-2.128-.034-3.141-.1q-.9-1.312-1.694-2.686c-.53-.916-1.019-1.846-1.481-2.8Zm12.44,3.527c.351-.606.682-1.219,1.006-1.839a31.975,31.975,0,0,1,1.164,3.051,30.254,30.254,0,0,1-3.237.551C23.061,22.4,23.412,21.805,23.757,21.213Zm.992-5.269c-.324-.606-.654-1.212-1-1.8S23.061,12.975,22.7,12.4a31.7,31.7,0,0,1,3.162.551,30.484,30.484,0,0,1-1.109,2.989Zm-7.1-7.749a30.247,30.247,0,0,1,2.039,2.466c-1.364-.062-2.735-.062-4.1,0C16.263,9.772,16.958,8.945,17.647,8.194ZM9.657,3.972c1.157-.675,3.726.289,6.433,2.686.172.152.344.317.523.482A34.995,34.995,0,0,0,13.659,10.8a36.309,36.309,0,0,0-4.629.716c-.09-.351-.165-.709-.241-1.068-.647-3.334-.22-5.848.868-6.475ZM7.969,22.129c-.289-.083-.572-.172-.854-.269a14.048,14.048,0,0,1-4.339-2.149,3.091,3.091,0,0,1-1.295-2.06c0-1.261,2.177-2.872,5.318-3.968.393-.138.792-.262,1.192-.379a36.627,36.627,0,0,0,1.688,4.381,37.652,37.652,0,0,0-1.708,4.443ZM16,28.879a12.607,12.607,0,0,1-3.885,2.431,3.049,3.049,0,0,1-2.431.09c-1.1-.634-1.55-3.065-.93-6.337.076-.386.158-.771.255-1.15a34.459,34.459,0,0,0,4.677.675,36.35,36.35,0,0,0,2.976,3.678C16.442,28.48,16.221,28.686,16,28.879Zm1.688-1.674c-.7-.758-1.405-1.6-2.087-2.5.661.028,1.343.041,2.032.041.709,0,1.405-.014,2.094-.048a29.7,29.7,0,0,1-2.039,2.507Zm9,2.066a3.061,3.061,0,0,1-1.137,2.156c-1.1.634-3.43-.193-5.951-2.356-.289-.248-.579-.517-.875-.792a34.074,34.074,0,0,0,2.907-3.692,33.956,33.956,0,0,0,4.7-.723c.069.282.131.565.186.84a12.556,12.556,0,0,1,.172,4.567Zm1.254-7.4c-.193.062-.386.124-.585.179A34.991,34.991,0,0,0,25.6,17.652a34.816,34.816,0,0,0,1.688-4.333c.358.1.7.214,1.033.324,3.21,1.1,5.462,2.741,5.462,4,0,1.35-2.4,3.093-5.841,4.229ZM17.633,20.834a3.155,3.155,0,1,0-3.155-3.155A3.154,3.154,0,0,0,17.633,20.834Z" transform="translate(0 -2.251)" fill="#3f3d56"/>
</svg>
