<svg xmlns="http://www.w3.org/2000/svg" width="41.143" height="30.86" viewBox="0 0 41.143 30.86">
  <path id="sass" d="M19.4,24.456C19.385,24.494,19.366,24.525,19.4,24.456ZM35.42,18.863a8.432,8.432,0,0,0-3.729.868,7.918,7.918,0,0,1-.836-1.935,5.165,5.165,0,0,1-.071-1.626,13.7,13.7,0,0,1,.489-1.749c-.006-.071-.09-.424-.919-.431s-1.543.161-1.626.379a7.9,7.9,0,0,0-.341,1.228,29.788,29.788,0,0,1-2.513,4.841,4.991,4.991,0,0,1-.572-1.414,5.165,5.165,0,0,1-.071-1.626,13.7,13.7,0,0,1,.489-1.749c-.006-.071-.09-.424-.919-.431s-1.543.161-1.626.379-.174.733-.341,1.228-2.179,4.969-2.705,6.133c-.27.591-.5,1.067-.669,1.389-.026.051-.045.084-.058.109.019-.032.032-.064.032-.051-.141.276-.225.431-.225.431v.006c-.109.206-.231.392-.289.392a2.667,2.667,0,0,1,.019-1.279c.3-1.556,1.016-3.973,1.009-4.056-.006-.045.135-.463-.469-.688a.757.757,0,0,0-.849.141c-.051,0-.09.129-.09.129s.649-2.726-1.247-2.726c-1.183,0-2.829,1.3-3.637,2.475-.508.276-1.607.874-2.764,1.511l-1.331.733c-.032-.032-.058-.064-.09-.1-2.3-2.456-6.549-4.191-6.369-7.489.064-1.2.482-4.359,8.169-8.19,6.3-3.137,11.337-2.276,12.2-.36,1.247,2.732-2.693,7.817-9.235,8.55-2.494.276-3.8-.688-4.132-1.048-.341-.379-.392-.4-.521-.328-.212.116-.077.45,0,.649a3.874,3.874,0,0,0,2.365,1.858,12.526,12.526,0,0,0,7.661-.759c3.972-1.53,7.063-5.792,6.157-9.36-.923-3.626-6.935-4.815-12.62-2.8A28.6,28.6,0,0,0,3.466,7.658C.336,10.589-.165,13.141.041,14.209.773,18,5.992,20.464,8.08,22.289c-.1.058-.2.109-.289.161-1.047.521-5.026,2.6-6.022,4.8-1.125,2.494.186,4.281,1.047,4.526a6.418,6.418,0,0,0,6.915-2.8,6.96,6.96,0,0,0,.617-6.4c-.006-.019-.019-.032-.026-.051.27-.161.546-.321.823-.482.533-.315,1.054-.6,1.51-.855a9.985,9.985,0,0,0-.54,2.739A5.691,5.691,0,0,0,13.344,27.9a1.349,1.349,0,0,0,.989.321c.887,0,1.286-.733,1.729-1.607.546-1.067,1.029-2.308,1.029-2.308s-.6,3.356,1.048,3.356c.6,0,1.208-.778,1.479-1.176v.006s.013-.026.045-.077c.064-.1.1-.154.1-.154v-.019c.244-.418.778-1.376,1.581-2.957,1.041-2.044,2.037-4.6,2.037-4.6a12.937,12.937,0,0,0,.4,1.659,15.528,15.528,0,0,0,.861,1.929c-.244.334-.392.527-.392.527a.02.02,0,0,0,.006.013c-.193.257-.411.534-.636.8a22.69,22.69,0,0,0-1.929,2.417.657.657,0,0,0,.18.881,1.563,1.563,0,0,0,1.009.161,4.458,4.458,0,0,0,1.511-.347,5.284,5.284,0,0,0,1.3-.681,2.9,2.9,0,0,0,1.247-2.559,5.324,5.324,0,0,0-.469-1.813c.071-.1.148-.212.219-.321a34.175,34.175,0,0,0,2.256-3.9,12.936,12.936,0,0,0,.4,1.659,11.34,11.34,0,0,0,.732,1.652A7.067,7.067,0,0,0,27.875,23.6c-.476,1.369-.1,1.986.6,2.128a2.157,2.157,0,0,0,1.1-.225,5.108,5.108,0,0,0,1.388-.714,3.106,3.106,0,0,0,1.529-2.546,4.783,4.783,0,0,0-.347-1.5,7.847,7.847,0,0,1,3.992-.463c3.579.418,4.28,2.655,4.145,3.587a2.377,2.377,0,0,1-1.138,1.607c-.251.154-.328.212-.309.328.032.167.148.161.36.122a2.793,2.793,0,0,0,1.947-2.488c.1-2.186-2-4.59-5.721-4.571Zm-27.59,9.3c-1.182,1.292-2.841,1.781-3.554,1.369-.765-.445-.463-2.346,1-3.723a19.048,19.048,0,0,1,2.789-2.083c.174-.1.424-.257.733-.444.051-.032.077-.045.077-.045.058-.039.122-.071.186-.109a5.131,5.131,0,0,1-1.228,5.034Zm8.638-5.876c-.411,1.009-1.279,3.581-1.806,3.446-.45-.116-.726-2.076-.09-4.005a8.866,8.866,0,0,1,1.408-2.578c.649-.726,1.362-.958,1.529-.669C17.733,18.863,16.724,21.659,16.467,22.289ZM23.6,25.7c-.174.09-.334.148-.411.1-.058-.032.071-.154.071-.154s.894-.958,1.247-1.4c.206-.257.444-.559.7-.894,0,.032.006.064.006.1A2.981,2.981,0,0,1,23.6,25.7Zm5.5-1.254c-.129-.09-.109-.392.321-1.331a5,5,0,0,1,1.221-1.575,2.326,2.326,0,0,1,.122.694,2.266,2.266,0,0,1-1.664,2.211Z" transform="translate(0 -1.125)" fill="#3f3d56"/>
</svg>
